# xmcd CD database file
#
# Track frame offsets:
#	150
#	24202
#	48462
#	70125
#	100570
#	134320
#	151665
#	168235
#	180055
#	196072
#	217159
#	247532
#	267060
#	293710
#
# Disc length: 4240 seconds
#
# Revision: 0
# Processed by: cddbd v1.5.2PL0 Copyright (c) Steve Scherf et al.
# Submitted via: CDex 1.51
#
DISCID=a6108e0e
DTITLE=Chicago Six - Cary-ing On
DYEAR=1997
DGENRE=Jazz
TTITLE0=Cary-ing On
TTITLE1=The Albatross
TTITLE2=Skylark
TTITLE3=Florence Off-Ramp
TTITLE4=Euphonics
TTITLE5=Natalia
TTITLE6=Wampum
TTITLE7=If Someone Had Told Me
TTITLE8=One More Song About New Orleans!
TTITLE9=Swing Down in New Orleans
TTITLE10=Careless Love
TTITLE11=The Way You Look Tonight
TTITLE12=Mood Indigo
TTITLE13=Golden Wedding
EXTD=YEAR: 1997
EXTT0=
EXTT1=
EXTT2=
EXTT3=
EXTT4=
EXTT5=
EXTT6=
EXTT7=
EXTT8=
EXTT9=
EXTT10=
EXTT11=
EXTT12=
EXTT13=
PLAYORDER=
